HIERARCHY
ROOT Hips
{
	OFFSET 0.00000 0.00000 0.00000
	CHANNELS 6 Xposition Yposition Zposition Zrotation Yrotation Xrotation 
	JOINT LHipJoint
	{
		OFFSET 0 0 0
		CHANNELS 3 Zrotation Yrotation Xrotation
		JOINT LeftHip
		{
			OFFSET 1.37959 -1.78713 0.86582
			CHANNELS 3 Zrotation Yrotation Xrotation
			JOINT LeftKnee
			{
				OFFSET 2.54611 -6.99539 0.00000
				CHANNELS 3 Zrotation Yrotation Xrotation
				JOINT LeftAnkle
				{
					OFFSET 2.59951 -7.14211 0.00000
					CHANNELS 3 Zrotation Yrotation Xrotation
					JOINT LeftToe
					{
						OFFSET 0.18493 -0.50810 1.96120
						CHANNELS 3 Zrotation Yrotation Xrotation
						End Site
						{
							OFFSET 0.00000 -0.00000 1.02054
						}
					}
				}
			}
		}
	}
	JOINT RHipJoint
	{
		OFFSET 0 0 0
		CHANNELS 3 Zrotation Yrotation Xrotation
		JOINT RightHip
		{
			OFFSET -1.33564 -1.78713 0.86582
			CHANNELS 3 Zrotation Yrotation Xrotation
			JOINT RightKnee
			{
				OFFSET -2.52705 -6.94302 0.00000
				CHANNELS 3 Zrotation Yrotation Xrotation
				JOINT RightAnkle
				{
					OFFSET -2.55964 -7.03257 0.00000
					CHANNELS 3 Zrotation Yrotation Xrotation
					JOINT RightToe
					{
						OFFSET -0.25804 -0.70896 2.12109
						CHANNELS 3 Zrotation Yrotation Xrotation
						End Site
						{
							OFFSET -0.00000 -0.00000 1.11821
						}
					}
				}
			}
		}
	}
	JOINT lowerback
	{
		OFFSET 0 0 0
		CHANNELS 3 Zrotation Yrotation Xrotation
		JOINT Chest
		{
			OFFSET -0.02031 2.24248 -0.18900
			CHANNELS 3 Zrotation Yrotation Xrotation
			JOINT Chest2
			{
				OFFSET 0.08342 2.24689 -0.03799
				CHANNELS 3 Zrotation Yrotation Xrotation
				JOINT lowerneck
				{
					OFFSET 0 0 0
					CHANNELS 3 Zrotation Yrotation Xrotation
					JOINT Neck
					{
						OFFSET -0.11607 1.55844 0.24628
						CHANNELS 3 Zrotation Yrotation Xrotation
						JOINT Head
						{
							OFFSET 0.06877 1.60174 -0.17013
							CHANNELS 3 Zrotation Yrotation Xrotation
							End Site
							{
								OFFSET 0.03358 1.61266 -0.08543
							}
						}
					}
				}
				JOINT LeftCollar
				{
					OFFSET 0 0 0
					CHANNELS 3 Zrotation Yrotation Xrotation
					JOINT LeftShoulder
					{
						OFFSET 3.47537 0.55866 -0.72348
CHANNELS 3 Zrotation Xrotation Yrotation
						JOINT LeftElbow
						{
OFFSET 0 -5.381540 0.000000
CHANNELS 3 Zrotation Xrotation Yrotation
							JOINT LeftWrist
							{
OFFSET 0 -3.333120 0.000000
CHANNELS 3 Zrotation Xrotation Yrotation
								JOINT lhand
								{
									OFFSET 0 0 0
CHANNELS 3 Zrotation Xrotation Yrotation
									JOINT LFingers
									{
OFFSET 0 -0.710790 0.000000
CHANNELS 3 Zrotation Xrotation Yrotation
										End Site
										{
OFFSET 0 -0.573060 0.000000
										}
									}
								}
								JOINT LThumb
								{
OFFSET 0 0.000000 0.000000
CHANNELS 3 Zrotation Xrotation Yrotation
									End Site
									{
OFFSET 0 -0.581810 0.581810
									}
								}
							}
						}
					}
				}
				JOINT RightCollar
				{
					OFFSET 0 0 0
					CHANNELS 3 Zrotation Yrotation Xrotation
					JOINT RightShoulder
					{
						OFFSET -3.27844 0.90739 -0.35708
CHANNELS 3 Zrotation Xrotation Yrotation
						JOINT RightElbow
						{
OFFSET 0 -5.169540 0.000000
CHANNELS 3 Zrotation Xrotation Yrotation
							JOINT RightWrist
							{
OFFSET 0 -3.382870 0.000000
CHANNELS 3 Zrotation Xrotation Yrotation
								JOINT rhand
								{
									OFFSET 0 0 0
CHANNELS 3 Zrotation Xrotation Yrotation
									JOINT RFingers
									{
OFFSET 0 -0.817970 0.000000
CHANNELS 3 Zrotation Xrotation Yrotation
										End Site
										{
OFFSET 0 -0.659470 0.000000
										}
									}
								}
								JOINT RThumb
								{
OFFSET 0 0.000000 0.000000
CHANNELS 3 Zrotation Xrotation Yrotation
									End Site
									{
OFFSET 0 -0.669530 0.669530
									}
								}
							}
						}
					}
				}
			}
		}
	}
}
MOTION
Frames: 4
Frame Time: 0.008333333333333333
4.705014 17.483495 2.658727 -171.629965 5.280492 -174.236100 0.000000 0.000000 0.000000 -4.209369 -13.103773 -34.332448 1.688484 8.184605 23.276163 0.731626 -1.326970 -15.761390 0.758187 -5.557101 -15.505560 0.000000 0.000000 0.000000 32.366689 1.760810 16.172585 0.000000 0.000000 0.000000 -0.454106 2.218131 -12.157551 -0.061228 -1.596286 4.391127 5.300648 1.948671 -1.053827 3.196055 2.644380 0.988491 0.390693 1.441214 1.690734 -10.675430 -3.665261 -18.460867 6.555403 -3.429873 20.283051 3.607174 -1.628868 9.792456 0.000000 0.000000 0.000000 -1.479285 7.137052 -14.899015 16.791990 -26.582503 3.993905 -1.505676 7.510497 -38.129797 0.000000 0.000000 0.000000 -7.125000 0.000000 0.000000 -43.764033 62.630982 20.786667 0.000000 0.000000 0.000000 -3.844625 -3.180230 25.018858 -18.373837 -28.633167 -4.727043 -12.604392 -18.387552 -19.113946 0.000000 0.000000 0.000000 7.125000 0.000000 0.000000 10.134653 10.665455 8.216818
4.699169 17.476888 2.597390 -171.596541 5.181997 -174.143050 0.000000 0.000000 0.000000 -4.275934 -12.957500 -34.446416 1.702213 8.216079 23.372315 0.709280 -1.288323 -15.523115 0.710877 -5.387145 -15.016484 0.000000 0.000000 0.000000 32.375706 1.718932 16.278160 0.000000 0.000000 0.000000 -0.453793 2.215285 -12.153792 -0.065404 -1.641793 4.516797 5.384203 1.909496 -1.063782 3.199703 2.594235 0.926971 0.345274 1.415849 1.634825 -10.682774 -3.729690 -18.550292 6.528581 -3.397225 20.423515 3.612417 -1.577468 9.857594 0.000000 0.000000 0.000000 -1.500730 7.138168 -14.742878 16.682488 -26.437039 3.945053 -1.693212 7.474403 -38.145158 0.000000 0.000000 0.000000 -7.125000 0.000000 0.000000 -43.961671 62.592994 20.861183 0.000000 0.000000 0.000000 -3.824617 -3.114469 25.002343 -18.350072 -28.603079 -4.715633 -12.538972 -18.208663 -19.405835 0.000000 0.000000 0.000000 7.125000 0.000000 0.000000 10.181298 10.379557 8.316033
4.693149 17.471280 2.535083 -171.601902 5.049096 -174.084083 0.000000 0.000000 0.000000 -4.368590 -12.908100 -34.492394 1.724521 8.266799 23.527525 0.683467 -1.175338 -15.258425 0.672528 -5.240842 -14.597574 0.000000 0.000000 0.000000 32.342676 1.621286 16.412999 0.000000 0.000000 0.000000 -0.453422 2.221841 -12.147153 -0.083506 -1.847021 5.083495 5.448571 1.893826 -1.085637 3.165271 2.572091 0.866685 0.272824 1.403149 1.588641 -10.728257 -3.579717 -18.444853 6.610268 -3.480108 20.389124 3.620128 -1.713380 9.830090 0.000000 0.000000 0.000000 -1.465350 7.123447 -14.576163 16.539814 -26.246531 3.881922 -1.858154 7.582604 -38.106397 0.000000 0.000000 0.000000 -7.125000 0.000000 0.000000 -44.066285 62.521657 20.847906 0.000000 0.000000 0.000000 -3.731095 -3.047915 24.865771 -18.342319 -28.593265 -4.711922 -12.380587 -17.917005 -19.301592 0.000000 0.000000 0.000000 7.125000 0.000000 0.000000 10.281830 10.499428 8.375288
4.687129 17.465672 2.472777 -171.607262 4.916194 -174.025117 0.000000 0.000000 0.000000 -4.461246 -12.858700 -34.538371 1.746829 8.317518 23.682735 0.657653 -1.062353 -14.993735 0.634179 -5.094539 -14.178664 0.000000 0.000000 0.000000 32.309647 1.523641 16.547839 0.000000 0.000000 0.000000 -0.453051 2.228397 -12.140514 -0.101608 -2.052250 5.650193 5.512940 1.878157 -1.107492 3.130840 2.549948 0.806398 0.200373 1.390448 1.542457 -10.773739 -3.429744 -18.339414 6.691956 -3.562991 20.354734 3.627839 -1.849291 9.802586 0.000000 0.000000 0.000000 -1.429970 7.108726 -14.409449 16.397139 -26.056024 3.818790 -2.023095 7.690806 -38.067636 0.000000 0.000000 0.000000 -7.125000 0.000000 0.000000 -44.170900 62.450320 20.834628 0.000000 0.000000 0.000000 -3.637573 -2.981361 24.729199 -18.334567 -28.583451 -4.708211 -12.222202 -17.625347 -19.197349 0.000000 0.000000 0.000000 7.125000 0.000000 0.000000 10.382362 10.619299 8.434543
